<?xml version="1.0" encoding="utf-8"?>
<!-- Generator: Adobe Illustrator 22.1.0, SVG Export Plug-In . SVG Version: 6.00 Build 0)  -->
<svg version="1.1" id="图层_1" xmlns="http://www.w3.org/2000/svg" xmlns:xlink="http://www.w3.org/1999/xlink" x="0px" y="0px"
	 viewBox="0 0 792 255.1" style="enable-background:new 0 0 792 255.1;" xml:space="preserve">
<style type="text/css">
	.st0{fill:#0086D8;}
	.st1{fill:#777777;}
	.st2{fill:#FFFFFF;}
	.st3{font-family:'HiraginoSansGB-W6-GBpc-EUC-H';}
	.st4{font-size:66.0098px;}
</style>
<g>
	<g>
		<g>
			<path class="st0" d="M287,172.8c0,3.7-1,6.4-3,8.2c-2,1.7-4.3,2.6-7,2.6c-6.7,0-10.1-3.6-10.1-10.8v-66.7
				c-2.4,2.6-4.9,3.8-7.2,3.7c-2.4-0.1-4.6-1-6.5-2.6l-0.3,0.2c-2.8-2.1-4.2-4.6-4.1-7.6c0.1-3,1.6-6.9,4.6-11.8
				c4.3-6.7,8.2-15.2,11.7-25.3s6.6-21.8,9.4-35.2v0.3c2-9.3,6.5-13.5,13.6-12.7c7.4,1,9.9,6.8,7.5,17.2c-1.4,5.6-2.8,10.8-4.2,15.7
				c-1.4,4.9-2.8,9.5-4.4,13.9L287,172.8L287,172.8z M331.6,57.6c0.3-4.5,0.5-10.5,0.5-17.9c0-2,0-3.9,0-5.9s-0.1-4.1-0.2-6.4
				c0-2.3,0.1-4.2,0.3-5.7c0.2-1.5,0.7-2.8,1.4-3.7c0.7-1,1.7-1.7,3-2.2c1.3-0.5,3-0.8,5.1-1c4.2,0,6.9,1.1,8.1,3.4s1.9,5.1,2.2,8.6
				c0.1,1.7,0.2,3.5,0.2,5.1c0,1.7,0,3.3,0,5c0,3.9-0.1,7.7-0.2,11.3s-0.3,6.9-0.5,9.9h38.8c-0.2-0.2-0.6-0.5-1-0.9
				c-0.4-0.3-0.8-0.8-1.1-1.2v0.2c-1.5-1.5-3.3-3.1-5.2-4.9c-2-1.7-3.9-3.4-5.9-5.1c-2-1.6-3.9-3.1-5.7-4.4c-1.9-1.3-3.4-2.4-4.5-3
				c-3.4-2-5.5-4.2-6.5-6.5c-1-2.4-0.3-5.2,2-8.4c2.1-2.6,4.2-4,6.4-4.4c2.2-0.3,5.3,0.7,9.4,3.1c1.4,1,3.1,2.3,5.1,3.7
				c2,1.5,4,3,6.2,4.6c2.1,1.6,4.3,3.3,6.4,5s4,3.3,5.7,4.8c3.1,3,4.8,6,5,8.8s-0.7,5.3-2.7,7.2l0.3-0.2c-0.6,0.7-1.1,1.2-1.6,1.6
				h4.5c4.1,0,6.9,0.8,8.4,2.5c1.6,1.7,2.4,4.3,2.4,7.8c0,3-0.8,5.3-2.4,7c-1.6,1.6-4.4,2.4-8.4,2.4h-34.3V152
				c0,3.5,0.6,5.7,1.9,6.6c1.3,0.9,4.2,1.4,8.7,1.4c2.1,0,3.8-0.2,5.1-0.7c1.3-0.5,2.5-1.5,3.5-3.2s1.8-4.2,2.5-7.6
				c0.7-3.4,1.5-8,2.4-13.8c0.1-3,1-5.4,2.5-7.2c1.6-1.8,4.2-2.7,7.9-2.7c3.1,0.2,5.4,1.2,6.9,2.8s2.2,4.5,2.2,8.7
				c-0.6,8.2-1.4,15-2.4,20.4c-1,5.3-2.4,9.7-4.2,13s-3.8,5.7-6.2,7.2c-2.4,1.5-5.1,2.5-8.3,3c-4.5,0.6-9.2,0.8-13.9,0.6
				c-4.8-0.2-9.7-0.6-14.8-1.3c-5.2-0.7-8.8-2.5-10.6-5.3c-1.9-2.8-2.8-7.2-2.8-13.2v-83h-3.7c-1.4,12.8-3.2,24.1-5.3,33.9
				c-2.1,9.8-4.8,18.6-8,26.5c-3.2,7.8-6.9,14.9-11.2,21.3c-4.3,6.3-9.2,12.3-14.8,18c-3.1,3.2-6.1,5-9,5.2
				c-2.8,0.2-5.4-1.2-7.8-4.2c-2.1-2.7-2.8-5.4-2.1-8.1c0.7-2.7,2.3-5.3,4.7-7.8h-0.2c4.4-4.5,8.4-9.6,12-15.1s6.8-11.7,9.6-18.6
				c2.8-6.9,5.2-14.5,7.1-22.9c2-8.4,3.6-17.9,4.9-28.3H304c-4.1,0-6.9-0.8-8.5-2.4s-2.4-3.9-2.4-7c0-3.5,0.8-6.1,2.4-7.8
				s4.5-2.5,8.5-2.5h27.5v-0.3C331.5,57.6,331.6,57.6,331.6,57.6z"/>
			<path class="st0" d="M463.1,78.5c-3.7,0-6.3-0.7-7.8-2S453,73,453,70c0-3.4,0.8-5.8,2.3-7.3c1.5-1.5,4.1-2.3,7.8-2.3h81.3
				c3.7,0,6.5,0.7,8.3,2s2.7,3.7,2.7,7.1c0,6-3.7,9.1-11,9.1h-28c-0.5,0.3-0.9,0.7-1.3,1c-0.4,0.3-0.8,0.6-1.3,0.9
				c3.8,4.3,6.9,8.2,9.3,11.8c2.4,3.6,4.3,7.2,5.8,10.8c4.9-2.3,9.1-4.6,12.8-7c3.7-2.3,7.2-4.8,10.5-7.5c3.5-2.7,6.3-4.3,8.5-4.9
				s4.5,0.2,6.8,2.3c2.9,2.7,4.2,5.2,3.7,7.7c-0.4,2.4-2.4,5.1-6,7.8c-1.6,1.3-3.2,2.5-4.8,3.7s-3.2,2.3-4.8,3.5
				c3.6,10.3,7.6,19,12.1,26.1c4.5,7.1,9.6,13.6,15.4,19.5c3.8,3.9,5.7,7.2,5.7,9.8c-0.1,2.6-1.4,5.1-3.9,7.4
				c-2.6,2.3-5.2,3.1-7.8,2.4c-2.7-0.8-5.6-2.8-8.9-6.2c-3.5-3.9-6.6-7.8-9.3-11.7c-2.7-3.8-5.2-7.8-7.5-11.8s-4.3-8.2-6.2-12.5
				s-3.7-9-5.4-14.1c-0.9,0.6-1.9,1.1-3,1.7c-1,0.5-2.1,1.1-3.3,1.7c0.6,6.4,0.7,12.3,0.3,17.7c-0.3,5.4-1,10.1-2.1,14.2
				c-1.4,5.5-3,10.1-5,13.8c-1.9,3.8-4.2,6.8-6.7,9.1c-2.6,2.3-5.4,3.9-8.6,4.9c-3.2,1-6.8,1.5-10.9,1.5c-3.4,0-6.8-0.2-10.2-0.7
				c-3.4-0.5-6.6-1.3-9.7-2.6c-4.1-1.6-6.6-3.5-7.5-5.7s-0.8-4.6,0.3-7.2c1.5-3.4,3.3-5.3,5.5-5.8c2.1-0.5,5,0,8.6,1.7
				c3.6,1.6,6.7,2.7,9.4,3.3c2.7,0.6,5.1,0.4,7.2-0.6s4-2.9,5.7-5.7c1.6-2.8,3.2-6.9,4.7-12.1c0.5-1.6,0.7-3.5,0.8-5.5
				s0.1-4.2,0.3-6.5c-6.3,4.5-12.4,8.6-18.4,12.3s-12,7-17.9,10c-6,3-12.1,5.8-18.3,8.4c-6.2,2.6-12.7,4.9-19.4,7.1
				c-4.8,1.6-8.2,1.9-10.4,0.9c-2.2-1-3.6-3.2-4.3-6.4c-0.7-3.4-0.4-5.9,0.8-7.6c1.2-1.7,4.2-3.2,9-4.4c5.7-1.6,11.4-3.5,17.2-5.7
				c5.7-2.2,11.7-4.9,17.9-8.1c6.2-3.2,12.6-6.9,19.4-11.2s14.1-9.4,21.9-15.3c-0.2-0.6-0.5-1.3-0.9-2.3c-0.3-0.9-0.8-1.9-1.2-2.8
				c-9.4,7-19.7,13.4-31,19.2c-11.3,5.8-22.5,10.7-33.6,14.8c-4.9,1.7-8.4,2.3-10.5,1.7s-3.8-2.7-5-6.3c-0.9-3-0.8-5.5,0.3-7.4
				c1.2-1.9,4-3.7,8.5-5.3c7.1-2.4,13.4-4.8,18.9-7.1c5.5-2.3,10.6-4.6,15.3-7c4.7-2.4,9.2-4.9,13.6-7.7c4.4-2.7,9-5.8,13.8-9.3
				c-0.3-0.6-0.8-1.3-1.5-2.2c-0.6-0.9-1.2-1.6-1.7-2.2c-7.9,5-15.9,9.5-24.1,13.4s-17.3,7.5-27.4,10.8c-2.4,0.8-4.4,1.4-6,1.7
				c-1.6,0.3-2.9,0.3-4-0.1c-1.1-0.3-2-1-2.8-1.9s-1.5-2.2-2.2-3.8c-1.3-2.9-1.3-5.5,0-7.7s4.4-4.1,9.2-5.6c5-1.5,9.4-3,13.3-4.4
				c3.9-1.5,7.5-2.9,10.9-4.4s6.6-3.1,9.8-4.7c3.2-1.6,6.5-3.4,10-5.4h-21.7L463.1,78.5L463.1,78.5z M564.6,29.8
				c6.6,0,11.7,1.5,15.2,4.6s5.2,7.8,5.2,14c0,2.9-0.4,6-1.3,9.4c-0.9,3.4-2.4,7-4.4,10.8c-2.4,4.5-4.7,7.2-6.8,8.1
				s-4.7,0.3-7.8-1.7c-2.7-1.6-4.2-3.5-4.6-5.6c-0.4-2.1,0.5-5.2,2.7-9.4c1.4-2.6,2.4-4.6,3-6.2c0.6-1.6,0.9-2.8,0.9-3.6
				c-0.1-0.8-0.5-1.3-1.2-1.6c-0.8-0.2-1.8-0.3-3.2-0.3H450.4c-0.9,0-1.6,0.2-1.9,0.6c-0.3,0.4-0.5,1.2-0.5,2.5v17.1
				c0,3.4-0.8,5.8-2.4,7.2c-1.6,1.5-3.9,2.2-7,2.2c-2.8,0-5.1-0.7-6.8-2c-1.7-1.3-2.6-3.7-2.6-7.1V50.3c0-6.4,1.7-11.4,5.1-15.1
				c3.4-3.7,7.9-5.5,13.5-5.5h45.6c-0.2-0.2-0.3-0.5-0.3-0.7c-2-4.1-2.7-7.1-2.3-9c0.5-1.9,2-3.5,4.5-4.8c3.5-1.7,6.5-2.2,9.1-1.4
				s4.8,3.1,6.5,7c0.5,0.9,1,2.1,1.5,3.7c0.5,1.5,1.2,3.3,2,5.2h50.2L564.6,29.8L564.6,29.8z"/>
			<path class="st0" d="M755.6,154c0,5.9-0.8,11-2.5,15.2s-4.4,7.5-8.3,9.8s-8.8,3.5-15,3.7s-13.6-0.9-22.5-3.2
				c-4.5-1.2-7.4-2.8-8.5-4.9c-1.2-2.1-1.3-4.8-0.3-8.2c1.9-7.3,6.9-9.3,15-6.1c4.6,1.7,8.4,2.9,11.4,3.4s5.3,0.5,6.9-0.2
				c1.6-0.6,2.8-1.7,3.4-3.3c0.6-1.6,1-3.5,1-5.8V50.5c0-2.3-0.3-3.9-1-4.7s-2.6-1.2-5.6-1.2H635c-2.1,0-3.6,0.5-4.5,1.5
				s-1.4,3-1.4,6v100c0.3-2.2,1.4-4.5,3.1-7c3.4-5.1,6.8-11.3,10.2-18.7c3.4-7.4,6.5-15.1,9.3-23.3c-2.7-5.8-5.4-11.5-8.1-17.1
				c-2.7-5.6-5.4-10.8-8.1-15.7c-2.3-4.2-3.4-7.5-3.3-9.9c0.1-2.4,0.9-4.2,2.3-5.4c2.9-2.2,5.5-2.9,7.8-2.1c2.3,0.8,4.6,3.4,6.8,7.8
				c3.2,6.6,6.4,13.1,9.4,19.3c1.9-7.2,3.2-13.9,4.2-20.2c0.6-4.8,1.5-7.9,2.8-9.5s3.5-2.2,6.6-1.8c3.4,0.3,5.5,1.5,6.5,3.6
				c1,2,1.1,5.1,0.3,9.3c-1.3,7.1-2.7,14.1-4.3,21s-3.4,13.8-5.5,20.6c2.1,4.8,4.2,9.5,6.3,14.3s4.1,9.6,6.1,14.6
				c1.3,3.1,1.7,6,1.3,8.7s-2.1,4.6-5,5.9c-3.1,1.4-5.5,1.4-7.1,0s-3-4.1-4.4-8.2c-0.7-2-1.5-4-2.3-6.2c-0.8-2.1-1.7-4.4-2.8-6.9
				c-2.1,5.2-4.4,10.4-6.8,15.4s-5.1,10.1-8,15.1c-2.3,4.1-4.6,6.6-6.7,7.5c-2.2,0.9-4.3,0.6-6.5-1c-2.4-1.7-3.8-3.9-4.2-6.6v16.7
				c0,3.8-0.9,6.6-2.8,8.3c-1.9,1.7-4.4,2.5-7.5,2.5c-3,0-5.3-0.8-7-2.5c-1.6-1.7-2.4-4.4-2.4-8.3v-126c0-3.9,0.3-7.3,1-10
				s1.9-5,3.6-6.7c1.7-1.7,3.9-3,6.7-3.7c2.8-0.8,6.3-1.1,10.5-1.1h101.7c7.8,0,13.5,1.8,17.2,5.4s5.6,9.4,5.6,17.4L755.6,154
				L755.6,154z M730.3,63c-1.3,8.7-2.8,16.9-4.6,24.5s-3.9,14.9-6.2,21.9c2.2,5.1,4.3,10.1,6.2,15s3.8,9.7,5.7,14.5
				c1.5,4.3,1.9,7.8,1.1,10.5c-0.8,2.7-2.4,4.6-4.8,5.7c-2.9,1.2-5.2,1.2-7,0.1c-1.7-1.1-3.4-4.2-4.9-9.3c-0.8-2.3-1.7-4.7-2.6-7.1
				c-0.9-2.4-1.9-4.8-2.8-7.2c-2.9,5.9-6.1,11.7-9.6,17.3s-7.3,11.2-11.5,16.8c-3.5,4.5-6.4,7-8.7,7.5s-4.8-0.7-7.5-3.5
				c-2.3-2.3-3.2-4.8-2.7-7.3c0.5-2.6,2.2-5.5,5-8.9c5.9-7.1,11-14.2,15.2-21.3c4.2-7.1,7.9-14.5,10.9-22.3
				c-2.8-6.3-5.6-12.2-8.4-17.7c-2.8-5.5-5.3-10.4-7.7-14.7c-2.3-4.1-3.5-7.4-3.4-10s1.4-4.8,4.1-6.5c2.9-1.9,5.3-2.4,7.3-1.5
				s4.2,3.7,6.8,8.4c2.9,5.8,5.7,11.7,8.5,17.6c0.9-3.8,1.7-7.8,2.4-11.9s1.3-8.4,1.9-12.8c0.3-2.4,0.8-4.4,1.2-5.9
				c0.5-1.5,1.1-2.7,1.8-3.6c0.8-0.9,1.7-1.4,3-1.7c1.2-0.2,2.8-0.3,4.6-0.2c3.5,0.3,5.6,1.6,6.4,3.7C731,55.3,731,58.6,730.3,63z"
				/>
		</g>
	</g>
	<path class="st1" d="M129.8,16.1c59,0,106.9,48.4,106.9,108.1s-47.9,108.1-106.9,108.1S22.9,183.9,22.9,124.2S70.7,16.1,129.8,16.1
		L129.8,16.1z M130.1,31c-51,0-92.4,41.7-92.4,93.2c0,51.4,41.4,93.2,92.4,93.2s92.4-41.7,92.4-93.2S181.1,31,130.1,31z"/>
	<path class="st0" d="M48.9,105.8l68.8-54.3c0,0,10.1-10.7,28.5,1.7l62.1,50.3c0,0,8.4,12.1-5,14.1l-13.2,0.1l-0.2,66l-42.2-0.4
		l7.7-13.7l20.4,0.1v-66.2h9.8c0,0,0.5-1.1-1.8-2.5s-50.2-39.9-50.2-39.9s-3.9-2.7-7.9,0.6l-51.6,40.6c0,0-0.2,1.6,2.7,1h7.5v66H104
		l7.9,13.6H71.2v-64.7H54C54,118.2,45.5,116.6,48.9,105.8z"/>
	<path class="st1" d="M101.1,125.2c11.4-4.3,34.8-11.2,59,2.4c3.1,1.7,1.1,3-0.8,4.6l-15.3,12l-13.2,65.5l-15.9-65.5
		c0,0-7.5-5.5-13.4-10C95.8,129.7,93.9,127.9,101.1,125.2z"/>
	<path class="st2" d="M129.2,137.3c3.8,0,6.9-3,6.9-6.8c0-3.7-3.1-6.8-6.9-6.8c-3.8,0-6.9,3-6.9,6.8
		C122.3,134.2,125.4,137.3,129.2,137.3z"/>
	<path class="st0" d="M573.7,195h9.2l15.2,35.3H589l-3.3-8.6h-13.6l-3.6,8.6h-8.9L573.7,195L573.7,195z M578.1,202.3l-4.2,14.7h9.3
		L578.1,202.3z"/>
	<path class="st0" d="M734,195h9.2l15.2,35.3h-9.1l-3.3-8.6h-13.6l-3.6,8.6h-8.9L734,195L734,195z M738.4,202.3l-4.2,14.7h9.3
		L738.4,202.3z"/>
	<path class="st0" d="M254,195v35.2h8v-13.9h10.1l9.2,13.9h9l-9-13.8c0,0,16-11.6,0-21.5H254V195z M262.1,200.4h14
		c0,0,8.6,7.7-2.3,11.2H262L262.1,200.4z"/>
	<path class="st0" d="M326.8,195.1h11.4l5.8,11c1.7,3.3,8.6,13.9,9.5,16.2v-13.8v-13.4h7.9v35.2h-10.6c-3.1-6.2-12.2-19.8-14.9-25.7
		h-0.7v25.7h-8.5v-35.2H326.8z"/>
	<path class="st0" d="M381.8,195.1c9.9,0,17.9,7.8,17.9,17.5s-8,17.5-17.9,17.5s-17.9-7.8-17.9-17.5
		C363.9,202.9,371.9,195.1,381.8,195.1L381.8,195.1z M381.8,201.5c-5.8,0-10.5,4.8-10.5,10.7s4.7,10.7,10.5,10.7s10.5-4.8,10.5-10.7
		S387.6,201.5,381.8,201.5z"/>
	<path class="st0" d="M458.7,195c9.9,0,18,7.9,18,17.6c0,9.7-8,17.6-18,17.6c-9.9,0-18-7.9-18-17.6S448.8,195,458.7,195L458.7,195z
		 M458.7,201.4c-5.8,0-10.5,4.8-10.5,10.7s4.7,10.7,10.5,10.7s10.5-4.8,10.5-10.7S464.5,201.4,458.7,201.4z"/>
	<path class="st0" d="M478.5,195.1h12.8l9.8,25.8l9.1-25.8h12.5l0.2,35.2H514l0.1-25.5l-8.3,25.5c-3.6,0-5.9,0-9.4,0l-9.4-26.6h-1.4
		c0,2.4,0.2,24.3,0.2,26.7h-7.1L478.5,195.1z"/>
	<path class="st0" d="M526.7,195.1H548c6.4,0,14.3,3,14.3,9.4c0,1.6-0.5,3.1-1.5,4.7c-2.8,4.3-10.3,7.2-15.4,7.2h-9.6v14h-9.1V195.1
		L526.7,195.1z M535.7,200.6l0.1,10.4h8c2.4,0,6.5-1.5,8.1-3.7c1.1-1.5,0.6-3.3-0.9-4.8c-1.3-1.3-4.1-1.9-6-1.9H535.7z"/>
	<path class="st0" d="M630.2,201.2h-21.4c0,0-4.4,6.4,1.4,8h13.5c0,0,16.8,6.2,3.5,20c-0.9,0.9-1.8,1.1-2.6,1.1h-24.5
		c0,0-4.1-3.8,1-6.3h20.4c0,0,5.8-5.4-1.6-8.9h-11.4c-2.8,0-3.9,0.3-6.1-1.4c-2.7-2.1-6-6.1-3.3-12.3c3.1-7,8.2-6.4,14.9-6.4h15.2
		C629.2,195.1,633.6,197.7,630.2,201.2z"/>
	<path class="st0" d="M668.3,201.3H647c0,0-4.4,6.4,1.4,8.1h13.5c0,0,16.8,6.2,3.5,20c-0.9,0.9-1.8,1.1-2.6,1.1h-24.5
		c0,0-4.1-3.8,1-6.3h20.4c0,0,5.8-5.5-1.6-8.9h-11.4c-2.8,0-3.9,0.3-6.1-1.4c-2.7-2.1-6-6.1-3.3-12.3c3.1-7,8.2-6.4,14.9-6.4h15.2
		C667.4,195.1,671.7,197.7,668.3,201.3z"/>
	<path class="st0" d="M300.4,195.1H323v7.5h-20.2c-2.7,2.1-4.1,4.5-4.8,6.8h23.2v3v0.6v3H298c0.6,2.4,2.1,4.7,4.8,6.8H323v7.5h-22.6
		c-2.6,0-2.8-0.6-3.6-1.3c-2.4-2.4-7.3-8.2-7.6-16l0,0v-0.3v-0.3l0,0c0.3-7.8,5.2-13.6,7.6-16C297.6,195.6,297.8,195.1,300.4,195.1z
		"/>
	<path class="st0" d="M438.5,195.1l-0.1,6.9h-14.8c-8.1,0-8.4,21.3,0.4,21.3l14.3-0.1l-0.1,6.9l-18.3,0.2c0,0-9.2-3.9-10.2-15
		c-0.9-10.2,2.3-18.8,13.9-20.2C428.2,195.1,433.5,195,438.5,195.1z"/>
	<path class="st0" d="M716.2,195.1l-0.1,6.9h-14.8c-8.1,0-8.4,21.3,0.4,21.3l14.3-0.1l-0.1,6.9l-18.3,0.2c0,0-9.2-3.9-10.2-15
		c-0.9-10.2,2.3-18.8,13.9-20.2C705.9,195.1,711.2,195,716.2,195.1z"/>
	<text transform="matrix(1 0 0 1 670.8856 229.7234)" class="st0 st3 st4">.</text>
</g>
</svg>
